<?xml version="1.0" encoding="UTF-8"?>
<svg xmlns="http://www.w3.org/2000/svg" xmlns:xlink="http://www.w3.org/1999/xlink" width="20pt" height="20pt" viewBox="0 0 24 24" version="1.1">
<g id="surface1">
<path style=" stroke:none;fill-rule:nonzero;fill:rgb(81.176471%,81.176471%,81.176471%);fill-opacity:1;" d="M 19.539062 5.300781 L 18.550781 4.3125 C 18.417969 4.179688 18.265625 4.113281 18.09375 4.113281 C 17.925781 4.113281 17.773438 4.179688 17.640625 4.3125 L 9.867188 12.082031 L 2.097656 4.3125 C 1.964844 4.179688 1.8125 4.113281 1.640625 4.113281 C 1.46875 4.113281 1.316406 4.179688 1.1875 4.3125 L 0.199219 5.300781 C 0.0664062 5.433594 0 5.585938 0 5.753906 C 0 5.925781 0.0664062 6.078125 0.199219 6.207031 L 9.414062 15.425781 C 9.542969 15.558594 9.695312 15.621094 9.867188 15.621094 C 10.039062 15.621094 10.191406 15.558594 10.324219 15.425781 L 19.539062 6.207031 C 19.671875 6.078125 19.738281 5.925781 19.738281 5.753906 C 19.738281 5.585938 19.671875 5.433594 19.539062 5.300781 Z M 19.539062 5.300781 "/>
</g>
</svg>
