<?xml version="1.0" encoding="UTF-8"?>
<svg xmlns="http://www.w3.org/2000/svg" xmlns:xlink="http://www.w3.org/1999/xlink" width="24pt" height="24pt" viewBox="0 0 24 24" version="1.1">
<g id="surface1">
<path style=" stroke:none;fill-rule:nonzero;fill:rgb(0%,0%,0%);fill-opacity:1;" d="M 19.875 8.625 C 19.875 8.003906 19.371094 7.5 18.75 7.5 C 18.445312 7.5 18.171875 7.621094 17.96875 7.816406 L 11.996094 13.785156 L 6.101562 7.890625 C 5.898438 7.652344 5.589844 7.5 5.25 7.5 C 4.628906 7.5 4.125 8.003906 4.125 8.625 C 4.125 8.925781 4.246094 9.199219 4.4375 9.402344 L 4.433594 9.40625 L 11.183594 16.15625 C 11.390625 16.367188 11.675781 16.5 11.996094 16.5 C 12 16.5 12 16.5 12 16.5 C 12.320312 16.5 12.605469 16.367188 12.808594 16.15625 L 19.558594 9.40625 C 19.753906 9.203125 19.875 8.929688 19.875 8.625 Z M 19.875 8.625 "/>
</g>
</svg>
