<?xml version="1.0" encoding="UTF-8"?>
<svg xmlns="http://www.w3.org/2000/svg" xmlns:xlink="http://www.w3.org/1999/xlink" width="24pt" height="24pt" viewBox="0 0 30 30" version="1.1">
<defs>
<linearGradient id="linear0" gradientUnits="userSpaceOnUse" x1="256" y1="514" x2="256" y2="2" gradientTransform="matrix(0.0585938,0,0,-0.0585938,0,30.117188)">
<stop offset="0" style="stop-color:rgb(16.470588%,96.078431%,59.607843%);stop-opacity:1;"/>
<stop offset="1" style="stop-color:rgb(0%,61.960784%,99.215686%);stop-opacity:1;"/>
</linearGradient>
</defs>
<g id="surface1">
<path style=" stroke:none;fill-rule:nonzero;fill:url(#linear0);" d="M 26.484375 2.34375 L 25.078125 2.34375 L 25.078125 0 L 22.734375 0 L 22.734375 2.34375 L 7.265625 2.34375 L 7.265625 0 L 4.921875 0 L 4.921875 2.34375 L 3.515625 2.34375 C 1.578125 2.34375 0 3.921875 0 5.859375 L 0 26.484375 C 0 28.421875 1.578125 30 3.515625 30 L 26.484375 30 C 28.421875 30 30 28.421875 30 26.484375 L 30 5.859375 C 30 3.921875 28.421875 2.34375 26.484375 2.34375 Z M 3.515625 4.6875 L 4.921875 4.6875 L 4.921875 7.03125 L 7.265625 7.03125 L 7.265625 4.6875 L 22.734375 4.6875 L 22.734375 7.03125 L 25.078125 7.03125 L 25.078125 4.6875 L 26.484375 4.6875 C 27.128906 4.6875 27.65625 5.214844 27.65625 5.859375 L 27.65625 8.671875 L 2.34375 8.671875 L 2.34375 5.859375 C 2.34375 5.214844 2.871094 4.6875 3.515625 4.6875 Z M 26.484375 27.65625 L 3.515625 27.65625 C 2.871094 27.65625 2.34375 27.128906 2.34375 26.484375 L 2.34375 11.015625 L 27.65625 11.015625 L 27.65625 26.484375 C 27.65625 27.128906 27.128906 27.65625 26.484375 27.65625 Z M 4.453125 13.476562 L 6.796875 13.476562 L 6.796875 15.820312 L 4.453125 15.820312 Z M 9.140625 13.476562 L 11.484375 13.476562 L 11.484375 15.820312 L 9.140625 15.820312 Z M 13.828125 13.476562 L 16.171875 13.476562 L 16.171875 15.820312 L 13.828125 15.820312 Z M 18.515625 13.476562 L 20.859375 13.476562 L 20.859375 15.820312 L 18.515625 15.820312 Z M 23.203125 13.476562 L 25.546875 13.476562 L 25.546875 15.820312 L 23.203125 15.820312 Z M 4.453125 18.164062 L 6.796875 18.164062 L 6.796875 20.507812 L 4.453125 20.507812 Z M 9.140625 18.164062 L 11.484375 18.164062 L 11.484375 20.507812 L 9.140625 20.507812 Z M 13.828125 18.164062 L 16.171875 18.164062 L 16.171875 20.507812 L 13.828125 20.507812 Z M 18.515625 18.164062 L 20.859375 18.164062 L 20.859375 20.507812 L 18.515625 20.507812 Z M 4.453125 22.851562 L 6.796875 22.851562 L 6.796875 25.195312 L 4.453125 25.195312 Z M 9.140625 22.851562 L 11.484375 22.851562 L 11.484375 25.195312 L 9.140625 25.195312 Z M 13.828125 22.851562 L 16.171875 22.851562 L 16.171875 25.195312 L 13.828125 25.195312 Z M 18.515625 22.851562 L 20.859375 22.851562 L 20.859375 25.195312 L 18.515625 25.195312 Z M 23.203125 18.164062 L 25.546875 18.164062 L 25.546875 20.507812 L 23.203125 20.507812 Z M 23.203125 18.164062 "/>
</g>
</svg>
