<?xml version="1.0" encoding="UTF-8"?>
<svg xmlns="http://www.w3.org/2000/svg" xmlns:xlink="http://www.w3.org/1999/xlink" width="24pt" height="24pt" viewBox="0 0 24 24" version="1.1">
<g id="surface1">
<path style=" stroke:none;fill-rule:nonzero;fill:rgb(0%,0%,0%);fill-opacity:1;" d="M 6 5.25 C 6.621094 5.25 7.125 4.746094 7.125 4.125 L 7.125 1.125 C 7.125 0.503906 6.621094 0 6 0 C 5.378906 0 4.875 0.503906 4.875 1.125 L 4.875 4.125 C 4.875 4.746094 5.378906 5.25 6 5.25 Z M 9.421875 11.625 Z M 18 5.25 C 18.621094 5.25 19.125 4.746094 19.125 4.125 L 19.125 1.125 C 19.125 0.503906 18.621094 0 18 0 C 17.378906 0 16.875 0.503906 16.875 1.125 L 16.875 4.125 C 16.875 4.746094 17.378906 5.25 18 5.25 Z M 9.375 16.5 L 10.875 16.5 L 10.875 18 C 10.875 18.621094 11.378906 19.125 12 19.125 C 12.621094 19.125 13.125 18.621094 13.125 18 L 13.125 16.5 L 14.625 16.5 C 15.246094 16.5 15.75 15.996094 15.75 15.375 C 15.75 14.753906 15.246094 14.25 14.625 14.25 L 13.125 14.25 L 13.125 12.75 C 13.125 12.128906 12.621094 11.625 12 11.625 C 11.378906 11.625 10.875 12.128906 10.875 12.75 L 10.875 14.25 L 9.375 14.25 C 8.753906 14.25 8.25 14.753906 8.25 15.375 C 8.25 15.996094 8.753906 16.5 9.375 16.5 Z M 22.875 3 L 20.625 3 L 20.625 4.125 C 20.625 5.574219 19.449219 6.75 18 6.75 C 16.550781 6.75 15.375 5.574219 15.375 4.125 L 15.375 3 L 8.625 3 L 8.625 4.125 C 8.625 5.574219 7.449219 6.75 6 6.75 C 4.550781 6.75 3.375 5.574219 3.375 4.125 L 3.375 3 L 1.125 3 C 0.503906 3 0 3.503906 0 4.125 L 0 22.875 C 0 23.496094 0.503906 24 1.125 24 L 22.875 24 C 23.496094 24 24 23.496094 24 22.875 L 24 4.125 C 24 3.503906 23.496094 3 22.875 3 Z M 21.75 21.75 L 2.25 21.75 L 2.25 9 L 21.75 9 Z M 21.75 21.75 "/>
</g>
</svg>
