<?xml version="1.0" encoding="UTF-8"?>
<svg xmlns="http://www.w3.org/2000/svg" xmlns:xlink="http://www.w3.org/1999/xlink" width="24pt" height="24pt" viewBox="0 0 24 24" version="1.1">
<g id="surface1">
<path style=" stroke:none;fill-rule:nonzero;fill:rgb(0%,0%,0%);fill-opacity:1;" d="M 17.25 16.125 Z M 17.25 7.875 Z M 16.5 7.875 C 16.191406 7.875 15.910156 8 15.703125 8.203125 L 10.5 13.410156 L 7.921875 10.828125 C 7.714844 10.625 7.433594 10.5 7.125 10.5 C 6.503906 10.5 6 11.003906 6 11.625 C 6 11.933594 6.125 12.214844 6.328125 12.421875 L 9.703125 15.796875 C 9.910156 16 10.191406 16.125 10.5 16.125 C 10.808594 16.125 11.089844 16 11.296875 15.796875 L 17.296875 9.796875 C 17.5 9.59375 17.625 9.308594 17.625 9 C 17.625 8.378906 17.121094 7.875 16.5 7.875 Z M 12 0 C 5.371094 0 0 5.371094 0 12 C 0 18.628906 5.371094 24 12 24 C 18.628906 24 24 18.628906 24 12 C 24 5.371094 18.628906 0 12 0 Z M 12 21.75 C 6.617188 21.75 2.25 17.382812 2.25 12 C 2.25 6.613281 6.617188 2.25 12 2.25 C 17.382812 2.25 21.75 6.613281 21.75 12 C 21.75 17.382812 17.382812 21.75 12 21.75 Z M 12 21.75 "/>
</g>
</svg>
