<?xml version="1.0" encoding="iso-8859-1"?>
<!-- Generator: Adobe Illustrator 19.0.0, SVG Export Plug-In . SVG Version: 6.00 Build 0)  -->
<svg version="1.1" id="Capa_1" xmlns="http://www.w3.org/2000/svg" xmlns:xlink="http://www.w3.org/1999/xlink" x="0px" y="0px"
	 viewBox="0 0 56 56" style="enable-background:new 0 0 18 18;" xml:space="preserve" width="18px" height="18px">
<g>
	<path d="M28,40c-4.411,0-8,3.589-8,8s3.589,8,8,8s8-3.589,8-8S32.411,40,28,40z M28,54c-3.309,0-6-2.691-6-6s2.691-6,6-6
		s6,2.691,6,6S31.309,54,28,54z"/>
	<path d="M28,20c-4.411,0-8,3.589-8,8s3.589,8,8,8s8-3.589,8-8S32.411,20,28,20z M28,34c-3.309,0-6-2.691-6-6s2.691-6,6-6
		s6,2.691,6,6S31.309,34,28,34z"/>
	<path d="M28,0c-4.411,0-8,3.589-8,8s3.589,8,8,8s8-3.589,8-8S32.411,0,28,0z M28,14c-3.309,0-6-2.691-6-6s2.691-6,6-6s6,2.691,6,6
		S31.309,14,28,14z"/>
</g>
</svg>
