<?xml version="1.0" encoding="UTF-8"?>
<svg xmlns="http://www.w3.org/2000/svg" xmlns:xlink="http://www.w3.org/1999/xlink" width="34pt" height="34pt" viewBox="0 0 34 34" version="1.1">
<g id="surface1">
<path style=" stroke:none;fill-rule:nonzero;fill:rgb(1.176471%,1.176471%,1.176471%);fill-opacity:1;" d="M 23.230469 4.128906 C 22.515625 3.816406 21.679688 4.144531 21.367188 4.859375 C 21.054688 5.578125 21.382812 6.414062 22.097656 6.726562 C 26.707031 8.742188 29.75 13.300781 29.75 18.417969 C 29.75 25.457031 24.039062 31.167969 17 31.167969 C 9.957031 31.167969 4.25 25.457031 4.25 18.417969 C 4.25 13.300781 7.292969 8.742188 11.898438 6.726562 C 12.617188 6.414062 12.941406 5.578125 12.628906 4.859375 C 12.316406 4.144531 11.480469 3.816406 10.765625 4.128906 C 5.132812 6.59375 1.417969 12.164062 1.417969 18.417969 C 1.417969 27.023438 8.394531 34 17 34 C 25.605469 34 32.582031 27.023438 32.582031 18.417969 C 32.582031 12.164062 28.863281 6.589844 23.230469 4.128906 Z M 23.230469 4.128906 "/>
<path style=" stroke:none;fill-rule:nonzero;fill:rgb(1.176471%,1.176471%,1.176471%);fill-opacity:1;" d="M 17 15.582031 C 17.78125 15.582031 18.417969 14.949219 18.417969 14.167969 L 18.417969 1.417969 C 18.417969 0.632812 17.78125 0 17 0 C 16.21875 0 15.582031 0.632812 15.582031 1.417969 L 15.582031 14.167969 C 15.582031 14.949219 16.21875 15.582031 17 15.582031 Z M 17 15.582031 "/>
</g>
</svg>
